<?xml version="1.0" encoding="UTF-8"?>
<!DOCTYPE svg PUBLIC "-//W3C//DTD SVG 1.1//EN" "http://www.w3.org/Graphics/SVG/1.1/DTD/svg11.dtd">
<svg xmlns="http://www.w3.org/2000/svg" version="1.1" width="1920px" height="600px" style="shape-rendering:geometricPrecision; text-rendering:geometricPrecision; image-rendering:optimizeQuality; fill-rule:evenodd; clip-rule:evenodd" xmlns:xlink="http://www.w3.org/1999/xlink">
<g><path style="opacity:0.971" fill="#fefffe" d="M 17.5,82.5 C 144.167,82.3333 270.834,82.5 397.5,83C 398,83.5 398.5,84 399,84.5C 399.333,151.833 399.667,219.167 400,286.5C 432.36,318.194 464.693,349.861 497,381.5C 497.483,382.448 497.649,383.448 497.5,384.5C 498.552,384.351 499.552,384.517 500.5,385C 542.746,427.449 585.58,469.616 629,511.5C 630.128,513.345 630.628,515.345 630.5,517.5C 503.833,517.667 377.166,517.5 250.5,517C 250,516.5 249.5,516 249,515.5C 248.667,448.5 248.333,381.5 248,314.5C 171.8,238.635 95.1332,162.968 18,87.5C 16.4807,85.8608 16.314,84.1942 17.5,82.5 Z"/></g>
<g><path style="opacity:0.919" fill="#fefffe" d="M 670.5,85.5 C 721.5,85.5 772.5,85.5 823.5,85.5C 823.667,103.17 823.5,120.836 823,138.5C 798.175,169.001 773.675,199.834 749.5,231C 773.876,231.176 798.209,231.676 822.5,232.5C 823.666,249.824 823.833,267.157 823,284.5C 772.238,285.497 721.405,285.831 670.5,285.5C 670.333,268.497 670.5,251.497 671,234.5C 695.598,203.502 720.098,172.335 744.5,141C 720.167,140.667 695.833,140.333 671.5,140C 670.508,121.91 670.174,103.743 670.5,85.5 Z"/></g>
<g><path style="opacity:0.921" fill="#fefffe" d="M 847.5,85.5 C 892.833,85.5 938.167,85.5 983.5,85.5C 984.833,103.833 984.833,122.167 983.5,140.5C 960.833,140.5 938.167,140.5 915.5,140.5C 915.5,146.5 915.5,152.5 915.5,158.5C 935.511,158.167 955.511,158.5 975.5,159.5C 976.651,175.789 976.818,192.122 976,208.5C 975.25,209.126 974.416,209.626 973.5,210C 954.17,210.5 934.836,210.667 915.5,210.5C 915.5,217.5 915.5,224.5 915.5,231.5C 937.879,231.177 960.212,231.511 982.5,232.5C 983.251,233.376 983.751,234.376 984,235.5C 984.79,252.198 984.623,268.865 983.5,285.5C 938.261,285.83 893.095,285.497 848,284.5C 847.5,218.168 847.333,151.834 847.5,85.5 Z"/></g>
<g><path style="opacity:0.912" fill="#fefffe" d="M 991.5,85.5 C 1048.5,85.5 1105.5,85.5 1162.5,85.5C 1162.67,103.503 1162.5,121.503 1162,139.5C 1145.24,140.492 1128.41,140.825 1111.5,140.5C 1111.83,188.505 1111.5,236.505 1110.5,284.5C 1099.21,285.156 1087.88,285.49 1076.5,285.5C 1065.26,285.495 1054.09,285.161 1043,284.5C 1042.5,236.501 1042.33,188.501 1042.5,140.5C 1025.26,140.825 1008.09,140.492 991,139.5C 990.181,121.426 990.348,103.426 991.5,85.5 Z"/></g>
<g><path style="opacity:0.929" fill="#fefffe" d="M 1233.5,85.5 C 1258.83,85.5 1284.17,85.5 1309.5,85.5C 1333.59,150.602 1357.59,215.769 1381.5,281C 1381.44,282.436 1381.11,283.769 1380.5,285C 1357.5,285.667 1334.5,285.667 1311.5,285C 1310.79,283.745 1309.96,282.579 1309,281.5C 1306.67,272.653 1304.17,263.986 1301.5,255.5C 1281.17,255.5 1260.83,255.5 1240.5,255.5C 1238.17,265.658 1234.83,275.492 1230.5,285C 1207.5,285.667 1184.5,285.667 1161.5,285C 1160.9,283.938 1160.57,282.772 1160.5,281.5C 1175.41,239.824 1190.91,198.491 1207,157.5C 1207.33,155.167 1207.67,152.833 1208,150.5C 1209.96,145.95 1212.29,141.617 1215,137.5C 1215.33,134.833 1215.67,132.167 1216,129.5C 1216.67,128.833 1217.33,128.167 1218,127.5C 1222.86,113.387 1228.03,99.3866 1233.5,85.5 Z M 1270.5,164.5 C 1275.42,177.769 1280.09,191.269 1284.5,205C 1275.5,205.667 1266.5,205.667 1257.5,205C 1262.53,191.735 1266.87,178.235 1270.5,164.5 Z"/></g>
<g><path style="opacity:0.911" fill="#fefffe" d="M 711.5,309.5 C 728.871,309.104 746.205,309.604 763.5,311C 778.578,314.785 791.412,322.285 802,333.5C 804,336.167 806,338.833 808,341.5C 811.268,347.653 813.935,353.987 816,360.5C 816.806,366.084 816.639,371.584 815.5,377C 792.167,377.667 768.833,377.667 745.5,377C 744.087,372.441 742.087,368.107 739.5,364C 737.385,363.443 735.385,362.609 733.5,361.5C 730.224,362.608 728.224,364.775 727.5,368C 727.354,370.034 728.02,371.701 729.5,373C 734.318,376.578 739.318,379.911 744.5,383C 760.318,387.827 775.652,393.827 790.5,401C 794.404,405.233 798.904,408.733 804,411.5C 806.667,414.833 809.333,418.167 812,421.5C 813.128,423.345 813.628,425.345 813.5,427.5C 814.5,427.5 815.5,427.5 816.5,427.5C 816.334,431.514 816.501,435.514 817,439.5C 817.667,440.167 818.333,440.833 819,441.5C 819.667,447.833 819.667,454.167 819,460.5C 818.586,460.957 818.086,461.291 817.5,461.5C 816.08,475.412 810.08,486.912 799.5,496C 794.751,499.756 789.751,503.089 784.5,506C 776.968,509.131 769.301,511.797 761.5,514C 747.5,514.667 733.5,514.667 719.5,514C 703.516,510.784 689.016,504.284 676,494.5C 667.14,486.116 660.807,476.116 657,464.5C 655.948,457.802 655.782,451.135 656.5,444.5C 679.169,444.333 701.836,444.5 724.5,445C 725.839,449.388 727.839,453.555 730.5,457.5C 737.274,462.953 742.94,461.953 747.5,454.5C 746.845,451.341 745.178,448.841 742.5,447C 728.096,439.642 713.096,433.642 697.5,429C 678.294,421.786 664.794,408.952 657,390.5C 648.629,351.958 662.796,326.125 699.5,313C 703.531,311.509 707.531,310.343 711.5,309.5 Z"/></g>
<g><path style="opacity:0.922" fill="#fefffe" d="M 1584.5,309.5 C 1600.88,309.094 1617.21,309.594 1633.5,311C 1670.61,322.115 1695.11,345.949 1707,382.5C 1708.07,388.449 1708.74,394.449 1709,400.5C 1709.91,401.328 1710.58,402.328 1711,403.5C 1711.67,409.5 1711.67,415.5 1711,421.5C 1710.58,422.672 1709.91,423.672 1709,424.5C 1708.63,430.204 1707.97,435.87 1707,441.5C 1703.99,444.447 1702.65,448.113 1703,452.5C 1691.33,477.08 1672.99,495.08 1648,506.5C 1610.88,520.401 1575.71,516.735 1542.5,495.5C 1509.21,468.627 1495.87,434.294 1502.5,392.5C 1507.55,363.249 1522.55,340.415 1547.5,324C 1559.23,317.263 1571.57,312.429 1584.5,309.5 Z M 1600.5,369.5 C 1609.97,370.364 1618.97,373.03 1627.5,377.5C 1643.27,395.343 1645.77,415.009 1635,436.5C 1624.29,449.789 1610.79,454.289 1594.5,450C 1582.15,445.649 1574.31,437.149 1571,424.5C 1570.33,415.5 1570.33,406.5 1571,397.5C 1573.35,389.302 1577.85,382.469 1584.5,377C 1589.84,374.198 1595.18,371.698 1600.5,369.5 Z"/></g>
<g><path style="opacity:0.908" fill="#fefffe" d="M 1778.5,309.5 C 1793.5,309.333 1808.5,309.5 1823.5,310C 1854.01,315 1873.51,332.167 1882,361.5C 1882.23,365.555 1882.73,369.555 1883.5,373.5C 1882.96,374.748 1882.29,375.915 1881.5,377C 1858.17,377.667 1834.83,377.667 1811.5,377C 1810.09,372.441 1808.09,368.107 1805.5,364C 1803.39,363.443 1801.39,362.609 1799.5,361.5C 1792.91,366.401 1792.91,371.568 1799.5,377C 1818.39,383.889 1836.89,391.722 1855,400.5C 1860.34,404.506 1865.67,408.506 1871,412.5C 1878.58,420.321 1882.91,429.654 1884,440.5C 1886.97,480.389 1868.8,504.223 1829.5,512C 1828.83,512.667 1828.17,513.333 1827.5,514C 1813.17,514.667 1798.83,514.667 1784.5,514C 1780.12,511.936 1775.45,510.602 1770.5,510C 1764.27,507.886 1758.27,505.22 1752.5,502C 1749.87,499.455 1746.87,497.455 1743.5,496C 1740.27,491.724 1736.6,487.891 1732.5,484.5C 1729.18,478.194 1726.02,471.861 1723,465.5C 1722.88,462.629 1722.22,459.962 1721,457.5C 1720.33,453.833 1720.33,450.167 1721,446.5C 1721.5,446 1722,445.5 1722.5,445C 1745.17,444.333 1767.83,444.333 1790.5,445C 1791.42,445.374 1792.25,445.874 1793,446.5C 1793.47,454.003 1797.13,459.003 1804,461.5C 1814.61,457.687 1815.28,452.354 1806,445.5C 1792.89,439.217 1779.39,434.051 1765.5,430C 1729.09,415.858 1714.93,389.691 1723,351.5C 1725.88,345.686 1729.05,340.019 1732.5,334.5C 1745.29,321.256 1760.62,312.922 1778.5,309.5 Z"/></g>
<g><path style="opacity:0.91" fill="#fefffe" d="M 826.5,310.5 C 882.501,310.333 938.501,310.5 994.5,311C 995,311.5 995.5,312 996,312.5C 996.167,321.167 996.333,329.833 996.5,338.5C 996.641,347.929 996.141,357.263 995,366.5C 978.244,367.492 961.411,367.825 944.5,367.5C 944.5,415.5 944.5,463.5 944.5,511.5C 922.167,511.5 899.833,511.5 877.5,511.5C 877.5,463.5 877.5,415.5 877.5,367.5C 860.453,367.819 843.453,367.486 826.5,366.5C 825.749,365.624 825.249,364.624 825,363.5C 824.333,347.167 824.333,330.833 825,314.5C 825.41,313.099 825.91,311.766 826.5,310.5 Z"/></g>
<g><path style="opacity:0.91" fill="#fefffe" d="M 1009.5,310.5 C 1030.17,310.333 1050.84,310.5 1071.5,311C 1072.31,311.308 1072.97,311.808 1073.5,312.5C 1074.05,353.149 1074.88,393.815 1076,434.5C 1076.04,439.154 1077.87,442.82 1081.5,445.5C 1091.9,452.283 1102.23,452.117 1112.5,445C 1115.16,441.754 1117.32,438.254 1119,434.5C 1119.01,393.749 1119.68,353.083 1121,312.5C 1121.5,312 1122,311.5 1122.5,311C 1143.17,310.333 1163.83,310.333 1184.5,311C 1185.67,312.167 1186.83,313.333 1188,314.5C 1188.91,357.515 1188.57,400.515 1187,443.5C 1184.94,448.223 1183.61,453.223 1183,458.5C 1179.68,464.313 1176.85,470.313 1174.5,476.5C 1173.68,477.386 1172.68,477.719 1171.5,477.5C 1170.8,480.554 1169.3,483.22 1167,485.5C 1152.87,500.646 1135.7,510.146 1115.5,514C 1101.83,514.667 1088.17,514.667 1074.5,514C 1073.67,513.085 1072.67,512.419 1071.5,512C 1052.43,508.385 1036.6,499.218 1024,484.5C 1016.24,472.697 1010.91,460.031 1008,446.5C 1007.33,401.833 1007.33,357.167 1008,312.5C 1008.72,311.956 1009.22,311.289 1009.5,310.5 Z"/></g>
<g><path style="opacity:0.926" fill="#fefffe" d="M 1211.5,310.5 C 1241.5,310.333 1271.5,310.5 1301.5,311C 1309.9,311.979 1318.24,313.312 1326.5,315C 1362.33,325.162 1385.83,347.995 1397,383.5C 1401.41,406.529 1400.07,429.196 1393,451.5C 1377.2,484.959 1351.04,504.792 1314.5,511C 1279.17,511.5 1243.83,511.667 1208.5,511.5C 1208.33,445.166 1208.5,378.832 1209,312.5C 1209.99,311.934 1210.83,311.267 1211.5,310.5 Z M 1276.5,369.5 C 1281.87,369.172 1287.21,369.505 1292.5,370.5C 1300.08,372.117 1307.42,374.617 1314.5,378C 1318.34,380.674 1321.67,383.841 1324.5,387.5C 1330.86,400.922 1332.02,414.922 1328,429.5C 1320.43,443.023 1308.93,450.523 1293.5,452C 1287.84,452.499 1282.18,452.666 1276.5,452.5C 1276.5,424.833 1276.5,397.167 1276.5,369.5 Z"/></g>
<g><path style="opacity:0.896" fill="#fefffe" d="M 1419.5,310.5 C 1440.17,310.333 1460.84,310.5 1481.5,311C 1482.67,311.5 1483.5,312.333 1484,313.5C 1484.5,379.499 1484.67,445.499 1484.5,511.5C 1462.16,511.667 1439.83,511.5 1417.5,511C 1417,510.5 1416.5,510 1416,509.5C 1415.33,444.833 1415.33,380.167 1416,315.5C 1416.7,313.416 1417.86,311.749 1419.5,310.5 Z"/></g>
</svg>
